<?xml version="1.0" standalone="no"?>
<!DOCTYPE svg PUBLIC "-//W3C//DTD SVG 20010904//EN"
 "http://www.w3.org/TR/2001/REC-SVG-20010904/DTD/svg10.dtd">
<svg version="1.0" xmlns="http://www.w3.org/2000/svg"
 width="300.000000pt" height="300.000000pt" viewBox="0 0 300.000000 300.000000"
 preserveAspectRatio="xMidYMid meet">
<metadata>
Created by potrace 1.14, written by Peter Selinger 2001-2017
</metadata>
<g transform="translate(0.000000,300.000000) scale(0.100000,-0.100000)"
fill="#000000" stroke="none">
<path d="M1350 2985 c-244 -54 -441 -211 -540 -429 -50 -110 -62 -169 -69
-346 l-6 -165 -107 -5 c-113 -5 -141 -17 -151 -63 -3 -12 -29 -446 -58 -964
-58 -1019 -58 -977 -2 -1002 17 -8 330 -11 1092 -11 l1068 0 27 25 c25 23 29
38 27 100 -1 38 -36 668 -56 1010 -8 143 -22 382 -30 530 -18 318 -19 325 -48
353 -19 18 -37 22 -127 24 l-105 3 -6 165 c-7 186 -22 249 -90 380 -96 186
-274 330 -474 385 -85 23 -264 28 -345 10z m293 -91 c40 -9 110 -34 157 -57
121 -59 240 -178 299 -299 55 -114 71 -193 71 -360 l0 -138 -670 0 -670 0 0
138 c0 106 5 157 20 216 91 358 440 578 793 500z m-616 -1705 c31 -12 40 -37
20 -57 -13 -13 -21 -13 -42 -4 -64 29 -155 6 -155 -39 0 -37 15 -52 95 -90 93
-44 116 -70 123 -140 10 -101 -64 -167 -174 -156 -74 8 -124 39 -124 78 0 41
22 46 63 15 48 -37 117 -37 146 0 42 54 20 89 -89 144 -87 44 -110 72 -110
135 0 90 71 141 179 128 24 -2 55 -9 68 -14z m181 -96 l3 -103 84 0 84 0 3
103 3 102 33 3 32 3 0 -246 0 -246 -32 3 -33 3 -5 110 -5 110 -80 0 -80 0 -5
-110 -5 -110 -30 0 -30 0 -3 230 c-1 126 0 236 3 243 3 8 16 12 32 10 l28 -3
3 -102z m595 69 l32 -32 3 -161 c2 -110 0 -171 -9 -190 -40 -99 -226 -103
-272 -6 -24 49 -25 313 -2 358 27 51 70 71 148 67 60 -3 71 -7 100 -36z m375
18 c45 -27 66 -80 59 -147 -10 -96 -58 -133 -171 -133 l-65 0 -3 -92 -3 -93
-30 0 -30 0 -3 230 c-1 126 0 235 2 242 4 9 34 13 108 13 86 0 109 -3 136 -20z"/>
<path d="M1635 1115 c-24 -23 -25 -29 -25 -155 0 -167 10 -190 83 -190 24 0
44 7 57 20 18 18 20 33 20 160 0 136 -1 142 -25 165 -15 16 -36 25 -55 25 -19
0 -40 -9 -55 -25z"/>
<path d="M2000 1050 l0 -90 63 0 c70 0 90 12 102 62 9 34 -11 95 -35 108 -10
6 -44 10 -74 10 l-56 0 0 -90z"/>
</g>
</svg>
